<svg xmlns="http://www.w3.org/2000/svg" xmlns:xlink="http://www.w3.org/1999/xlink" width="172" zoomAndPan="magnify" viewBox="0 0 129 44.999999" height="60" preserveAspectRatio="xMidYMid meet" version="1.0"><defs><g/><clipPath id="9fd3775a02"><path d="M 13.308594 13.453125 L 31.308594 13.453125 L 31.308594 31.453125 L 13.308594 31.453125 Z M 13.308594 13.453125 " clip-rule="nonzero"/></clipPath></defs><g clip-path="url(#9fd3775a02)"><path fill="#ff640a" d="M 22.320312 13.453125 C 21.726562 13.453125 21.136719 13.511719 20.554688 13.625 C 19.972656 13.742188 19.40625 13.914062 18.855469 14.140625 C 18.308594 14.367188 17.785156 14.648438 17.292969 14.976562 C 16.796875 15.308594 16.339844 15.683594 15.921875 16.101562 C 15.5 16.523438 15.125 16.980469 14.796875 17.472656 C 14.464844 17.964844 14.1875 18.488281 13.960938 19.035156 C 13.734375 19.585938 13.5625 20.152344 13.445312 20.734375 C 13.328125 21.316406 13.273438 21.90625 13.273438 22.5 C 13.273438 23.09375 13.328125 23.679688 13.445312 24.265625 C 13.5625 24.847656 13.734375 25.414062 13.960938 25.960938 C 14.1875 26.511719 14.464844 27.03125 14.796875 27.523438 C 15.125 28.019531 15.5 28.476562 15.921875 28.894531 C 16.339844 29.316406 16.796875 29.691406 17.292969 30.019531 C 17.785156 30.351562 18.308594 30.628906 18.855469 30.855469 C 19.40625 31.085938 19.972656 31.257812 20.554688 31.371094 C 21.136719 31.488281 21.726562 31.546875 22.320312 31.546875 C 22.40625 31.546875 22.492188 31.539062 22.574219 31.535156 L 22.710938 31.527344 C 22.816406 31.527344 22.902344 31.488281 22.976562 31.414062 C 23.050781 31.34375 23.085938 31.253906 23.085938 31.148438 C 23.085938 31.046875 23.050781 30.957031 22.976562 30.882812 C 22.902344 30.808594 22.816406 30.773438 22.710938 30.773438 C 22.226562 30.75 21.75 30.679688 21.277344 30.566406 C 20.808594 30.449219 20.351562 30.292969 19.910156 30.089844 C 19.472656 29.886719 19.054688 29.640625 18.660156 29.359375 C 18.269531 29.074219 17.90625 28.757812 17.574219 28.402344 C 17.242188 28.050781 16.949219 27.667969 16.691406 27.257812 C 16.433594 26.847656 16.214844 26.414062 16.039062 25.964844 C 15.867188 25.511719 15.734375 25.046875 15.652344 24.570312 C 15.566406 24.09375 15.527344 23.613281 15.535156 23.128906 C 15.542969 22.640625 15.597656 22.164062 15.695312 21.6875 C 15.796875 21.214844 15.941406 20.753906 16.128906 20.308594 C 16.320312 19.863281 16.550781 19.4375 16.820312 19.035156 C 17.089844 18.632812 17.398438 18.261719 17.742188 17.917969 C 18.085938 17.574219 18.457031 17.269531 18.859375 17 C 19.261719 16.726562 19.683594 16.496094 20.132812 16.308594 C 20.578125 16.121094 21.039062 15.976562 21.511719 15.875 C 21.988281 15.777344 22.464844 15.722656 22.949219 15.714844 C 23.433594 15.707031 23.917969 15.746094 24.394531 15.832031 C 24.871094 15.917969 25.335938 16.046875 25.785156 16.222656 C 26.238281 16.394531 26.671875 16.613281 27.082031 16.871094 C 27.492188 17.128906 27.871094 17.425781 28.226562 17.757812 C 28.578125 18.085938 28.898438 18.449219 29.179688 18.84375 C 29.464844 19.238281 29.707031 19.652344 29.910156 20.09375 C 30.113281 20.535156 30.273438 20.988281 30.386719 21.460938 C 30.5 21.929688 30.570312 22.410156 30.59375 22.894531 C 30.597656 22.992188 30.636719 23.078125 30.710938 23.148438 C 30.78125 23.21875 30.867188 23.253906 30.96875 23.253906 C 31.070312 23.253906 31.15625 23.21875 31.230469 23.148438 C 31.304688 23.078125 31.34375 22.992188 31.347656 22.890625 L 31.355469 22.761719 C 31.359375 22.675781 31.367188 22.585938 31.367188 22.5 C 31.367188 21.90625 31.308594 21.316406 31.191406 20.734375 C 31.074219 20.152344 30.902344 19.585938 30.675781 19.039062 C 30.449219 18.488281 30.167969 17.96875 29.839844 17.472656 C 29.507812 16.980469 29.132812 16.523438 28.714844 16.105469 C 28.292969 15.683594 27.835938 15.308594 27.34375 14.980469 C 26.847656 14.648438 26.328125 14.371094 25.78125 14.144531 C 25.230469 13.914062 24.664062 13.742188 24.082031 13.628906 C 23.5 13.511719 22.914062 13.453125 22.320312 13.453125 Z M 22.320312 13.453125 " fill-opacity="1" fill-rule="nonzero"/></g><path fill="#ff640a" d="M 30.015625 21.714844 C 29.839844 21.699219 29.714844 21.773438 29.644531 21.933594 C 29.5625 22.109375 29.460938 22.273438 29.339844 22.421875 C 29.21875 22.574219 29.078125 22.707031 28.921875 22.820312 C 28.765625 22.933594 28.597656 23.027344 28.417969 23.097656 C 28.238281 23.167969 28.050781 23.214844 27.859375 23.238281 C 27.667969 23.261719 27.476562 23.261719 27.285156 23.234375 C 27.089844 23.207031 26.90625 23.160156 26.726562 23.085938 C 26.546875 23.011719 26.382812 22.914062 26.226562 22.800781 C 26.070312 22.683594 25.933594 22.546875 25.816406 22.398438 C 25.695312 22.246094 25.59375 22.082031 25.515625 21.902344 C 25.441406 21.726562 25.386719 21.542969 25.355469 21.351562 C 25.324219 21.160156 25.316406 20.96875 25.335938 20.777344 C 25.355469 20.582031 25.398438 20.394531 25.464844 20.214844 C 25.53125 20.03125 25.621094 19.863281 25.730469 19.703125 C 25.839844 19.542969 25.96875 19.402344 26.117188 19.277344 C 26.261719 19.148438 26.425781 19.042969 26.597656 18.960938 C 26.773438 18.875 26.953125 18.8125 27.144531 18.777344 C 27.316406 18.742188 27.414062 18.636719 27.441406 18.464844 C 27.46875 18.292969 27.40625 18.164062 27.253906 18.078125 C 26.8125 17.828125 26.347656 17.628906 25.859375 17.488281 C 25.371094 17.34375 24.875 17.257812 24.367188 17.230469 C 23.859375 17.199219 23.355469 17.230469 22.855469 17.316406 C 22.351562 17.40625 21.867188 17.546875 21.402344 17.746094 C 20.933594 17.945312 20.492188 18.195312 20.082031 18.496094 C 19.671875 18.796875 19.304688 19.140625 18.972656 19.527344 C 18.640625 19.914062 18.359375 20.332031 18.125 20.785156 C 17.890625 21.234375 17.710938 21.707031 17.585938 22.199219 C 17.457031 22.691406 17.390625 23.191406 17.378906 23.699219 C 17.371094 24.210938 17.417969 24.710938 17.523438 25.210938 C 17.628906 25.707031 17.789062 26.1875 18.007812 26.644531 C 18.222656 27.105469 18.488281 27.535156 18.804688 27.933594 C 19.121094 28.332031 19.476562 28.691406 19.875 29.007812 C 20.273438 29.324219 20.699219 29.59375 21.160156 29.808594 C 21.621094 30.027344 22.097656 30.191406 22.59375 30.296875 C 23.09375 30.40625 23.59375 30.457031 24.101562 30.445312 C 24.613281 30.4375 25.113281 30.371094 25.605469 30.25 C 26.097656 30.125 26.570312 29.945312 27.023438 29.714844 C 27.476562 29.480469 27.894531 29.199219 28.28125 28.871094 C 28.667969 28.539062 29.015625 28.171875 29.316406 27.761719 C 29.617188 27.351562 29.871094 26.914062 30.070312 26.445312 C 30.269531 25.980469 30.417969 25.496094 30.503906 24.996094 C 30.59375 24.496094 30.625 23.992188 30.597656 23.484375 C 30.574219 22.976562 30.488281 22.476562 30.347656 21.988281 C 30.296875 21.820312 30.1875 21.730469 30.015625 21.714844 Z M 30.015625 21.714844 " fill-opacity="1" fill-rule="nonzero"/><path stroke-linecap="butt" transform="matrix(1.111509, 0, 0, 1.111509, 29.884672, 13.60793)" fill="none" stroke-linejoin="miter" d="M 9.279772 5.44857 C 10.119706 5.44857 10.801493 5.680519 11.32162 6.140901 C 11.841746 6.601283 12.133439 7.191697 12.196697 7.919171 L 10.566031 7.919171 C 10.421942 7.047608 9.982646 6.611826 9.244628 6.611826 C 8.805332 6.611826 8.45741 6.794573 8.193832 7.153039 C 7.933769 7.515019 7.803738 8.045688 7.803738 8.748562 C 7.803738 9.507665 7.933769 10.073478 8.186804 10.446001 C 8.443353 10.818524 8.791275 11.004786 9.234085 11.004786 C 9.560922 11.004786 9.838557 10.899355 10.06699 10.692007 C 10.295424 10.484659 10.450057 10.182424 10.530887 9.792329 L 12.186154 9.792329 C 12.049094 10.561975 11.711715 11.148875 11.170502 11.556542 C 10.632804 11.964208 9.954531 12.168042 9.139197 12.168042 C 8.23249 12.168042 7.497988 11.883378 6.935689 11.310536 C 6.37339 10.737694 6.092241 9.922361 6.092241 8.857507 C 6.092241 7.799682 6.394476 6.966777 7.002462 6.358792 C 7.610447 5.75432 8.369551 5.44857 9.279772 5.44857 Z M 16.505312 5.462628 C 16.688059 5.462628 16.846206 5.476685 16.972723 5.508315 L 16.972723 6.84026 C 16.26985 6.791059 15.749723 6.942177 15.412344 7.290099 C 15.078479 7.638021 14.909789 8.23195 14.909789 9.071884 L 14.909789 11.999352 L 13.254522 11.999352 L 13.254522 5.61726 L 14.909789 5.61726 L 14.909789 6.780516 L 15.412344 5.891381 C 15.725123 5.603203 16.090617 5.462628 16.505312 5.462628 Z M 23.706252 5.61726 L 23.706252 11.999352 L 22.050985 11.999352 L 22.050985 10.920441 L 21.558973 11.735774 C 21.126706 12.023952 20.613608 12.168042 20.023194 12.168042 C 19.390608 12.168042 18.873996 12.013409 18.476873 11.707659 C 18.083263 11.398395 17.847801 11.011815 17.76697 10.547918 C 17.724798 10.273797 17.703712 9.887217 17.703712 9.384662 L 17.703712 5.61726 L 19.358979 5.61726 L 19.358979 9.03674 C 19.358979 9.331947 19.376551 9.623639 19.411694 9.911817 C 19.499554 10.632263 19.910735 10.990728 20.645238 10.990728 C 21.077505 10.990728 21.418398 10.811496 21.671433 10.45303 C 21.924467 10.09105 22.050985 9.563895 22.050985 8.86805 L 22.050985 5.61726 Z M 31.181312 7.237384 C 31.212941 7.522047 31.230513 7.912142 31.230513 8.400639 L 31.230513 11.999352 L 29.575246 11.999352 L 29.575246 8.629073 C 29.575246 8.253036 29.568217 7.957829 29.550646 7.739938 C 29.494416 6.987863 29.086749 6.611826 28.327646 6.611826 C 27.895378 6.611826 27.547456 6.815659 27.280364 7.219812 C 27.016786 7.623964 26.88324 8.246007 26.88324 9.085941 L 26.88324 11.999352 L 25.227973 11.999352 L 25.227973 5.61726 L 26.88324 5.61726 L 26.88324 6.64697 L 27.378766 5.891381 C 27.793462 5.596174 28.306559 5.44857 28.914545 5.44857 C 29.585789 5.44857 30.116459 5.606717 30.503039 5.919496 C 30.893134 6.22876 31.118054 6.668056 31.181312 7.237384 Z M 35.440726 5.44857 C 36.28066 5.44857 36.962447 5.680519 37.479059 6.140901 C 38.0027 6.601283 38.294393 7.191697 38.357651 7.919171 L 36.72347 7.919171 C 36.582895 7.047608 36.1436 6.611826 35.405582 6.611826 C 34.966286 6.611826 34.61485 6.794573 34.354786 7.153039 C 34.094723 7.515019 33.964691 8.045688 33.964691 8.748562 C 33.964691 9.507665 34.091209 10.073478 34.347758 10.446001 C 34.604306 10.818524 34.952229 11.004786 35.395039 11.004786 C 35.721875 11.004786 35.99951 10.899355 36.227944 10.692007 C 36.456378 10.484659 36.61101 10.182424 36.688327 9.792329 L 38.343594 9.792329 C 38.210048 10.561975 37.872668 11.148875 37.331456 11.556542 C 36.793758 11.964208 36.115485 12.168042 35.296637 12.168042 C 34.393444 12.168042 33.658941 11.883378 33.093128 11.310536 C 32.530829 10.737694 32.24968 9.922361 32.24968 8.857507 C 32.24968 7.799682 32.55543 6.966777 33.163416 6.358792 C 33.767887 5.75432 34.530505 5.44857 35.440726 5.44857 Z M 45.365301 7.237384 C 45.39693 7.522047 45.414502 7.912142 45.414502 8.400639 L 45.414502 11.999352 L 43.759235 11.999352 L 43.759235 8.629073 C 43.759235 8.253036 43.752206 7.957829 43.734634 7.739938 C 43.678404 6.987863 43.270737 6.611826 42.511634 6.611826 C 42.079367 6.618855 41.731444 6.822688 41.464352 7.223326 C 41.200775 7.623964 41.067229 8.246007 41.067229 9.085941 L 41.067229 11.999352 L 39.411962 11.999352 L 39.411962 3.118544 L 41.067229 3.118544 L 41.067229 6.64697 L 41.562755 5.891381 C 41.97745 5.596174 42.490548 5.44857 43.098533 5.44857 C 43.769778 5.44857 44.300447 5.606717 44.687028 5.919496 C 45.077122 6.22876 45.302042 6.668056 45.365301 7.237384 Z M 52.914163 5.61726 L 50.34516 12.241843 C 50.011295 13.095835 49.645801 13.689763 49.252191 14.020113 C 48.862097 14.353978 48.338456 14.519154 47.684783 14.519154 C 47.403634 14.519154 47.154114 14.505096 46.939737 14.473467 L 46.939737 13.331297 C 47.048683 13.348869 47.213858 13.355898 47.431749 13.355898 C 47.997562 13.355898 48.3982 13.071234 48.630148 12.505421 L 48.714493 12.298073 L 46.110347 5.61726 L 47.958904 5.61726 L 49.54037 10.741208 L 51.100749 5.61726 Z M 56.899456 5.462628 C 57.082203 5.462628 57.236835 5.476685 57.366867 5.508315 L 57.366867 6.84026 C 56.660479 6.791059 56.140352 6.942177 55.806487 7.290099 C 55.469108 7.638021 55.300418 8.23195 55.300418 9.071884 L 55.300418 11.999352 L 53.645151 11.999352 L 53.645151 5.61726 L 55.300418 5.61726 L 55.300418 6.780516 L 55.806487 5.891381 C 56.115752 5.603203 56.481246 5.462628 56.899456 5.462628 Z M 58.649611 6.376363 C 59.23651 5.757835 60.048329 5.44857 61.085068 5.44857 C 62.125321 5.44857 62.940654 5.757835 63.524039 6.376363 C 64.107424 6.998407 64.399117 7.806711 64.399117 8.808306 C 64.399117 9.799358 64.107424 10.607662 63.524039 11.23322 C 62.940654 11.855263 62.125321 12.168042 61.085068 12.168042 C 60.048329 12.168042 59.23651 11.855263 58.649611 11.23322 C 58.066226 10.607662 57.774533 9.799358 57.774533 8.808306 C 57.774533 7.806711 58.066226 6.998407 58.649611 6.376363 Z M 59.914783 10.424915 C 60.199447 10.811496 60.589542 11.004786 61.085068 11.004786 C 61.580594 11.004786 61.970688 10.811496 62.255352 10.424915 C 62.540016 10.03482 62.684105 9.497122 62.684105 8.808306 C 62.684105 8.11949 62.540016 7.581792 62.255352 7.195211 C 61.970688 6.805116 61.580594 6.611826 61.085068 6.611826 C 60.589542 6.611826 60.199447 6.805116 59.914783 7.195211 C 59.630119 7.581792 59.489545 8.11949 59.489545 8.808306 C 59.489545 9.497122 59.630119 10.03482 59.914783 10.424915 Z M 67.087608 3.178289 L 67.087608 9.911817 C 67.087608 10.192967 67.091122 10.389771 67.098151 10.498717 C 67.112208 10.667406 67.171953 10.779866 67.277384 10.836096 C 67.382815 10.892326 67.569076 10.909898 67.843197 10.89584 L 67.843197 12.034496 C 67.555019 12.069639 67.214125 12.083697 66.82403 12.083697 C 65.941924 12.083697 65.485056 11.707659 65.453427 10.955585 C 65.439369 10.762294 65.432341 10.428429 65.432341 9.950475 L 65.432341 3.178289 Z M 70.433286 3.178289 L 70.433286 9.911817 C 70.433286 10.192967 70.4368 10.389771 70.447344 10.498717 C 70.461401 10.667406 70.521145 10.779866 70.623062 10.836096 C 70.728493 10.892326 70.918269 10.909898 71.188875 10.89584 L 71.188875 12.034496 C 70.904211 12.069639 70.563318 12.083697 70.169708 12.083697 C 69.291117 12.083697 68.834249 11.707659 68.802619 10.955585 C 68.788562 10.762294 68.778019 10.428429 68.778019 9.950475 L 68.778019 3.178289 Z M 70.433286 3.178289 " stroke="#000000" stroke-width="0.225" stroke-opacity="1" stroke-miterlimit="4"/><g fill="#ff640a" fill-opacity="1"><g transform="translate(36.293214, 26.946033)"><g><path d="M 3.90625 -7.28125 C 4.84375 -7.28125 5.597656 -7.023438 6.171875 -6.515625 C 6.753906 -6.003906 7.082031 -5.34375 7.15625 -4.53125 L 5.34375 -4.53125 C 5.175781 -5.5 4.6875 -5.984375 3.875 -5.984375 C 3.382812 -5.984375 2.992188 -5.785156 2.703125 -5.390625 C 2.410156 -4.992188 2.265625 -4.398438 2.265625 -3.609375 C 2.265625 -2.765625 2.40625 -2.132812 2.6875 -1.71875 C 2.976562 -1.3125 3.367188 -1.109375 3.859375 -1.109375 C 4.222656 -1.109375 4.53125 -1.222656 4.78125 -1.453125 C 5.03125 -1.679688 5.203125 -2.015625 5.296875 -2.453125 L 7.140625 -2.453125 C 6.984375 -1.597656 6.601562 -0.941406 6 -0.484375 C 5.40625 -0.0351562 4.65625 0.1875 3.75 0.1875 C 2.738281 0.1875 1.921875 -0.128906 1.296875 -0.765625 C 0.671875 -1.398438 0.359375 -2.3125 0.359375 -3.5 C 0.359375 -4.664062 0.695312 -5.585938 1.375 -6.265625 C 2.050781 -6.941406 2.894531 -7.28125 3.90625 -7.28125 Z M 3.90625 -7.28125 "/></g></g></g><g fill="#ff640a" fill-opacity="1"><g transform="translate(43.775935, 26.946033)"><g><path d="M 4.453125 -7.265625 C 4.660156 -7.265625 4.835938 -7.25 4.984375 -7.21875 L 4.984375 -5.734375 C 4.191406 -5.785156 3.609375 -5.617188 3.234375 -5.234375 C 2.867188 -4.847656 2.6875 -4.1875 2.6875 -3.25 L 2.6875 0 L 0.84375 0 L 0.84375 -7.09375 L 2.6875 -7.09375 L 2.6875 -5.796875 L 3.25 -6.796875 C 3.59375 -7.109375 3.992188 -7.265625 4.453125 -7.265625 Z M 4.453125 -7.265625 "/></g></g></g><g fill="#ff640a" fill-opacity="1"><g transform="translate(48.844445, 26.946033)"><g><path d="M 7.390625 -7.09375 L 7.390625 0 L 5.546875 0 L 5.546875 -1.203125 L 5 -0.296875 C 4.519531 0.0234375 3.953125 0.1875 3.296875 0.1875 C 2.585938 0.1875 2.015625 0.015625 1.578125 -0.328125 C 1.140625 -0.671875 0.875 -1.097656 0.78125 -1.609375 C 0.738281 -1.910156 0.71875 -2.34375 0.71875 -2.90625 L 0.71875 -7.09375 L 2.5625 -7.09375 L 2.5625 -3.296875 C 2.5625 -2.960938 2.578125 -2.640625 2.609375 -2.328125 C 2.710938 -1.523438 3.171875 -1.125 3.984375 -1.125 C 4.460938 -1.125 4.84375 -1.320312 5.125 -1.71875 C 5.40625 -2.125 5.546875 -2.710938 5.546875 -3.484375 L 5.546875 -7.09375 Z M 7.390625 -7.09375 "/></g></g></g><g fill="#ff640a" fill-opacity="1"><g transform="translate(57.087444, 26.946033)"><g><path d="M 7.453125 -5.296875 C 7.492188 -4.972656 7.515625 -4.539062 7.515625 -4 L 7.515625 0 L 5.671875 0 L 5.671875 -3.75 C 5.671875 -4.164062 5.660156 -4.492188 5.640625 -4.734375 C 5.578125 -5.566406 5.125 -5.984375 4.28125 -5.984375 C 3.800781 -5.984375 3.414062 -5.757812 3.125 -5.3125 C 2.832031 -4.863281 2.6875 -4.175781 2.6875 -3.25 L 2.6875 0 L 0.84375 0 L 0.84375 -7.09375 L 2.6875 -7.09375 L 2.6875 -5.953125 L 3.234375 -6.796875 C 3.691406 -7.117188 4.257812 -7.28125 4.9375 -7.28125 C 5.6875 -7.28125 6.273438 -7.109375 6.703125 -6.765625 C 7.140625 -6.421875 7.390625 -5.929688 7.453125 -5.296875 Z M 7.453125 -5.296875 "/></g></g></g><g fill="#ff640a" fill-opacity="1"><g transform="translate(65.370469, 26.946033)"><g><path d="M 3.90625 -7.28125 C 4.84375 -7.28125 5.597656 -7.023438 6.171875 -6.515625 C 6.753906 -6.003906 7.082031 -5.34375 7.15625 -4.53125 L 5.34375 -4.53125 C 5.175781 -5.5 4.6875 -5.984375 3.875 -5.984375 C 3.382812 -5.984375 2.992188 -5.785156 2.703125 -5.390625 C 2.410156 -4.992188 2.265625 -4.398438 2.265625 -3.609375 C 2.265625 -2.765625 2.40625 -2.132812 2.6875 -1.71875 C 2.976562 -1.3125 3.367188 -1.109375 3.859375 -1.109375 C 4.222656 -1.109375 4.53125 -1.222656 4.78125 -1.453125 C 5.03125 -1.679688 5.203125 -2.015625 5.296875 -2.453125 L 7.140625 -2.453125 C 6.984375 -1.597656 6.601562 -0.941406 6 -0.484375 C 5.40625 -0.0351562 4.65625 0.1875 3.75 0.1875 C 2.738281 0.1875 1.921875 -0.128906 1.296875 -0.765625 C 0.671875 -1.398438 0.359375 -2.3125 0.359375 -3.5 C 0.359375 -4.664062 0.695312 -5.585938 1.375 -6.265625 C 2.050781 -6.941406 2.894531 -7.28125 3.90625 -7.28125 Z M 3.90625 -7.28125 "/></g></g></g><g fill="#ff640a" fill-opacity="1"><g transform="translate(72.85319, 26.946033)"><g><path d="M 7.453125 -5.296875 C 7.492188 -4.972656 7.515625 -4.539062 7.515625 -4 L 7.515625 0 L 5.671875 0 L 5.671875 -3.75 C 5.671875 -4.164062 5.660156 -4.492188 5.640625 -4.734375 C 5.578125 -5.566406 5.125 -5.984375 4.28125 -5.984375 C 3.800781 -5.984375 3.414062 -5.757812 3.125 -5.3125 C 2.832031 -4.863281 2.6875 -4.175781 2.6875 -3.25 L 2.6875 0 L 0.84375 0 L 0.84375 -9.875 L 2.6875 -9.875 L 2.6875 -5.953125 L 3.234375 -6.796875 C 3.691406 -7.117188 4.257812 -7.28125 4.9375 -7.28125 C 5.6875 -7.28125 6.273438 -7.109375 6.703125 -6.765625 C 7.140625 -6.421875 7.390625 -5.929688 7.453125 -5.296875 Z M 7.453125 -5.296875 "/></g></g></g><g fill="#ff640a" fill-opacity="1"><g transform="translate(81.136216, 26.946033)"><g><path d="M 7.5625 -7.09375 L 4.703125 0.265625 C 4.335938 1.210938 3.9375 1.867188 3.5 2.234375 C 3.0625 2.609375 2.476562 2.796875 1.75 2.796875 C 1.4375 2.796875 1.160156 2.78125 0.921875 2.75 L 0.921875 1.484375 C 1.046875 1.503906 1.226562 1.515625 1.46875 1.515625 C 2.101562 1.515625 2.546875 1.195312 2.796875 0.5625 L 2.890625 0.328125 L 0 -7.09375 L 2.0625 -7.09375 L 3.8125 -1.40625 L 5.546875 -7.09375 Z M 7.5625 -7.09375 "/></g></g></g><g fill="#ff640a" fill-opacity="1"><g transform="translate(88.672293, 26.946033)"><g><path d="M 4.453125 -7.265625 C 4.660156 -7.265625 4.835938 -7.25 4.984375 -7.21875 L 4.984375 -5.734375 C 4.191406 -5.785156 3.609375 -5.617188 3.234375 -5.234375 C 2.867188 -4.847656 2.6875 -4.1875 2.6875 -3.25 L 2.6875 0 L 0.84375 0 L 0.84375 -7.09375 L 2.6875 -7.09375 L 2.6875 -5.796875 L 3.25 -6.796875 C 3.59375 -7.109375 3.992188 -7.265625 4.453125 -7.265625 Z M 4.453125 -7.265625 "/></g></g></g><g fill="#ff640a" fill-opacity="1"><g transform="translate(93.740804, 26.946033)"><g><path d="M 1.328125 -6.25 C 1.984375 -6.9375 2.890625 -7.28125 4.046875 -7.28125 C 5.203125 -7.28125 6.101562 -6.9375 6.75 -6.25 C 7.394531 -5.5625 7.71875 -4.660156 7.71875 -3.546875 C 7.71875 -2.441406 7.394531 -1.539062 6.75 -0.84375 C 6.101562 -0.15625 5.203125 0.1875 4.046875 0.1875 C 2.890625 0.1875 1.984375 -0.15625 1.328125 -0.84375 C 0.679688 -1.539062 0.359375 -2.441406 0.359375 -3.546875 C 0.359375 -4.660156 0.679688 -5.5625 1.328125 -6.25 Z M 2.734375 -1.75 C 3.054688 -1.320312 3.492188 -1.109375 4.046875 -1.109375 C 4.597656 -1.109375 5.03125 -1.320312 5.34375 -1.75 C 5.65625 -2.1875 5.8125 -2.785156 5.8125 -3.546875 C 5.8125 -4.316406 5.65625 -4.914062 5.34375 -5.34375 C 5.03125 -5.769531 4.597656 -5.984375 4.046875 -5.984375 C 3.492188 -5.984375 3.054688 -5.769531 2.734375 -5.34375 C 2.421875 -4.914062 2.265625 -4.316406 2.265625 -3.546875 C 2.265625 -2.785156 2.421875 -2.1875 2.734375 -1.75 Z M 2.734375 -1.75 "/></g></g></g><g fill="#ff640a" fill-opacity="1"><g transform="translate(101.823749, 26.946033)"><g><path d="M 2.625 -9.8125 L 2.625 -2.328125 C 2.625 -2.015625 2.628906 -1.796875 2.640625 -1.671875 C 2.660156 -1.484375 2.726562 -1.359375 2.84375 -1.296875 C 2.957031 -1.234375 3.164062 -1.210938 3.46875 -1.234375 L 3.46875 0.046875 C 3.144531 0.078125 2.765625 0.09375 2.328125 0.09375 C 1.359375 0.09375 0.851562 -0.320312 0.8125 -1.15625 C 0.789062 -1.375 0.78125 -1.75 0.78125 -2.28125 L 0.78125 -9.8125 Z M 2.625 -9.8125 "/></g></g></g><g fill="#ff640a" fill-opacity="1"><g transform="translate(105.545104, 26.946033)"><g><path d="M 2.625 -9.8125 L 2.625 -2.328125 C 2.625 -2.015625 2.628906 -1.796875 2.640625 -1.671875 C 2.660156 -1.484375 2.726562 -1.359375 2.84375 -1.296875 C 2.957031 -1.234375 3.164062 -1.210938 3.46875 -1.234375 L 3.46875 0.046875 C 3.144531 0.078125 2.765625 0.09375 2.328125 0.09375 C 1.359375 0.09375 0.851562 -0.320312 0.8125 -1.15625 C 0.789062 -1.375 0.78125 -1.75 0.78125 -2.28125 L 0.78125 -9.8125 Z M 2.625 -9.8125 "/></g></g></g></svg>