<svg xmlns="http://www.w3.org/2000/svg" xmlns:xlink="http://www.w3.org/1999/xlink" width="172" zoomAndPan="magnify" viewBox="0 0 129 44.999999" height="60" preserveAspectRatio="xMidYMid meet" version="1.0"><defs><g/><clipPath id="961f39f7ad"><path d="M 22.03125 14.300781 L 46.78125 14.300781 L 46.78125 32.300781 L 22.03125 32.300781 Z M 22.03125 14.300781 " clip-rule="nonzero"/></clipPath></defs><g clip-path="url(#961f39f7ad)"><path fill="#fab818" d="M 42.566406 31.207031 L 42.234375 32.300781 L 27.164062 32.300781 L 26.835938 31.207031 Z M 39.109375 24.648438 C 37.710938 24.191406 36.472656 22.40625 35.4375 19.335938 C 35.136719 18.449219 34.898438 17.589844 34.71875 16.871094 C 34.546875 17.632812 34.3125 18.546875 34.007812 19.480469 C 32.984375 22.644531 31.714844 24.386719 30.234375 24.664062 C 27.945312 25.085938 25.394531 23.039062 23.941406 21.617188 L 26.5625 30.300781 L 42.839844 30.300781 L 45.429688 21.707031 C 43.941406 23.230469 41.34375 25.375 39.109375 24.648438 Z M 34.6875 14.304688 C 34.421875 14.304688 34.195312 14.394531 34.011719 14.582031 C 33.824219 14.769531 33.730469 14.996094 33.730469 15.257812 C 33.730469 15.523438 33.824219 15.746094 34.011719 15.933594 C 34.195312 16.121094 34.421875 16.214844 34.6875 16.214844 C 34.949219 16.214844 35.175781 16.121094 35.363281 15.933594 C 35.546875 15.75 35.640625 15.523438 35.640625 15.257812 C 35.640625 14.996094 35.546875 14.769531 35.363281 14.582031 C 35.175781 14.398438 34.949219 14.304688 34.6875 14.304688 Z M 22.988281 19.480469 C 22.722656 19.480469 22.5 19.574219 22.3125 19.761719 C 22.125 19.945312 22.03125 20.171875 22.03125 20.4375 C 22.03125 20.699219 22.125 20.925781 22.3125 21.113281 C 22.5 21.296875 22.722656 21.390625 22.988281 21.390625 C 23.25 21.390625 23.476562 21.296875 23.664062 21.113281 C 23.851562 20.925781 23.945312 20.699219 23.945312 20.4375 C 23.945312 20.171875 23.851562 19.945312 23.664062 19.761719 C 23.476562 19.574219 23.25 19.480469 22.988281 19.480469 Z M 46.074219 19.621094 C 45.808594 19.621094 45.582031 19.714844 45.394531 19.902344 C 45.210938 20.085938 45.117188 20.3125 45.113281 20.578125 C 45.113281 20.839844 45.207031 21.066406 45.394531 21.253906 C 45.582031 21.441406 45.804688 21.535156 46.070312 21.535156 C 46.335938 21.535156 46.558594 21.441406 46.746094 21.253906 C 46.933594 21.066406 47.027344 20.84375 47.027344 20.578125 C 47.027344 20.316406 46.933594 20.089844 46.746094 19.902344 C 46.558594 19.714844 46.335938 19.621094 46.070312 19.621094 Z M 46.074219 19.621094 " fill-opacity="1" fill-rule="nonzero"/></g><g fill="#fab818" fill-opacity="1"><g transform="translate(51.104602, 20.700793)"><g><path d="M 7.21875 -6.6875 L 4.53125 -6.6875 L 4.53125 0 L 2.953125 0 L 2.953125 -6.6875 L 0.265625 -6.6875 L 0.265625 -7.921875 L 7.21875 -7.921875 Z M 7.21875 -6.6875 "/></g></g></g><g fill="#fab818" fill-opacity="1"><g transform="translate(58.259333, 20.700793)"><g><path d="M 6.765625 -2 C 6.859375 -1.050781 7.050781 -0.382812 7.34375 0 L 5.609375 0 C 5.410156 -0.53125 5.28125 -1.117188 5.21875 -1.765625 C 5.101562 -2.660156 4.742188 -3.132812 4.140625 -3.1875 C 3.992188 -3.1875 3.789062 -3.1875 3.53125 -3.1875 L 2.609375 -3.1875 L 2.609375 0 L 1.015625 0 L 1.015625 -7.921875 L 3.921875 -7.921875 C 4.359375 -7.921875 4.738281 -7.898438 5.0625 -7.859375 C 5.6875 -7.785156 6.1875 -7.578125 6.5625 -7.234375 C 6.945312 -6.898438 7.140625 -6.410156 7.140625 -5.765625 C 7.140625 -5.265625 7 -4.851562 6.71875 -4.53125 C 6.445312 -4.207031 6.070312 -3.972656 5.59375 -3.828125 C 6.269531 -3.578125 6.660156 -2.96875 6.765625 -2 Z M 2.609375 -4.375 L 3.703125 -4.375 C 4.015625 -4.375 4.226562 -4.378906 4.34375 -4.390625 C 5.101562 -4.453125 5.484375 -4.832031 5.484375 -5.53125 C 5.484375 -5.882812 5.390625 -6.144531 5.203125 -6.3125 C 5.023438 -6.488281 4.769531 -6.601562 4.4375 -6.65625 C 4.25 -6.675781 4.023438 -6.6875 3.765625 -6.6875 L 2.609375 -6.6875 Z M 2.609375 -4.375 "/></g></g></g><g fill="#fab818" fill-opacity="1"><g transform="translate(65.770079, 20.700793)"><g><path d="M 4.5625 -3.0625 L 4.5625 0 L 2.984375 0 L 2.984375 -3.0625 L 0.1875 -7.921875 L 1.96875 -7.921875 L 3.828125 -4.46875 L 5.609375 -7.921875 L 7.359375 -7.921875 Z M 4.5625 -3.0625 "/></g></g></g><g fill="#fab818" fill-opacity="1"><g transform="translate(72.959268, 20.700793)"><g/></g></g><g fill="#fab818" fill-opacity="1"><g transform="translate(75.187227, 20.700793)"><g><path d="M 2.609375 -6.6875 L 2.609375 -4.59375 L 6.21875 -4.59375 L 6.21875 -3.34375 L 2.609375 -3.34375 L 2.609375 0 L 1.015625 0 L 1.015625 -7.921875 L 6.625 -7.921875 L 6.625 -6.6875 Z M 2.609375 -6.6875 "/></g></g></g><g fill="#fab818" fill-opacity="1"><g transform="translate(81.997434, 20.700793)"><g><path d="M 6.765625 -2 C 6.859375 -1.050781 7.050781 -0.382812 7.34375 0 L 5.609375 0 C 5.410156 -0.53125 5.28125 -1.117188 5.21875 -1.765625 C 5.101562 -2.660156 4.742188 -3.132812 4.140625 -3.1875 C 3.992188 -3.1875 3.789062 -3.1875 3.53125 -3.1875 L 2.609375 -3.1875 L 2.609375 0 L 1.015625 0 L 1.015625 -7.921875 L 3.921875 -7.921875 C 4.359375 -7.921875 4.738281 -7.898438 5.0625 -7.859375 C 5.6875 -7.785156 6.1875 -7.578125 6.5625 -7.234375 C 6.945312 -6.898438 7.140625 -6.410156 7.140625 -5.765625 C 7.140625 -5.265625 7 -4.851562 6.71875 -4.53125 C 6.445312 -4.207031 6.070312 -3.972656 5.59375 -3.828125 C 6.269531 -3.578125 6.660156 -2.96875 6.765625 -2 Z M 2.609375 -4.375 L 3.703125 -4.375 C 4.015625 -4.375 4.226562 -4.378906 4.34375 -4.390625 C 5.101562 -4.453125 5.484375 -4.832031 5.484375 -5.53125 C 5.484375 -5.882812 5.390625 -6.144531 5.203125 -6.3125 C 5.023438 -6.488281 4.769531 -6.601562 4.4375 -6.65625 C 4.25 -6.675781 4.023438 -6.6875 3.765625 -6.6875 L 2.609375 -6.6875 Z M 2.609375 -4.375 "/></g></g></g><g fill="#fab818" fill-opacity="1"><g transform="translate(89.508179, 20.700793)"><g><path d="M 6.734375 -1.25 L 6.734375 0 L 1.015625 0 L 1.015625 -7.921875 L 6.625 -7.921875 L 6.625 -6.6875 L 2.609375 -6.6875 L 2.609375 -4.59375 L 6.34375 -4.59375 L 6.34375 -3.34375 L 2.609375 -3.34375 L 2.609375 -1.25 Z M 6.734375 -1.25 "/></g></g></g><g fill="#fab818" fill-opacity="1"><g transform="translate(96.582527, 20.700793)"><g><path d="M 6.734375 -1.25 L 6.734375 0 L 1.015625 0 L 1.015625 -7.921875 L 6.625 -7.921875 L 6.625 -6.6875 L 2.609375 -6.6875 L 2.609375 -4.59375 L 6.34375 -4.59375 L 6.34375 -3.34375 L 2.609375 -3.34375 L 2.609375 -1.25 Z M 6.734375 -1.25 "/></g></g></g><g fill="#fab818" fill-opacity="1"><g transform="translate(103.663193, 20.700793)"><g/></g></g><g fill="#ffffff" fill-opacity="1"><g transform="translate(53.272571, 32.549998)"><g><path d="M 4.640625 -7.890625 C 5.273438 -7.816406 5.773438 -7.582031 6.140625 -7.1875 C 6.515625 -6.789062 6.703125 -6.257812 6.703125 -5.59375 C 6.703125 -5.144531 6.609375 -4.753906 6.421875 -4.421875 C 6.242188 -4.097656 6 -3.84375 5.6875 -3.65625 C 5.375 -3.46875 5.023438 -3.34375 4.640625 -3.28125 C 4.460938 -3.257812 4.296875 -3.25 4.140625 -3.25 C 3.984375 -3.25 3.804688 -3.25 3.609375 -3.25 L 2.140625 -3.25 L 2.140625 0 L 1.15625 0 L 1.15625 -7.9375 L 3.609375 -7.9375 C 3.804688 -7.9375 3.984375 -7.929688 4.140625 -7.921875 C 4.296875 -7.921875 4.460938 -7.910156 4.640625 -7.890625 Z M 4.59375 -4.125 C 4.875 -4.1875 5.117188 -4.332031 5.328125 -4.5625 C 5.535156 -4.789062 5.640625 -5.132812 5.640625 -5.59375 C 5.640625 -6.050781 5.535156 -6.390625 5.328125 -6.609375 C 5.117188 -6.835938 4.875 -6.984375 4.59375 -7.046875 C 4.476562 -7.066406 4.34375 -7.082031 4.1875 -7.09375 C 4.039062 -7.101562 3.878906 -7.109375 3.703125 -7.109375 L 2.140625 -7.109375 L 2.140625 -4.078125 L 3.703125 -4.078125 C 3.878906 -4.078125 4.039062 -4.078125 4.1875 -4.078125 C 4.34375 -4.085938 4.476562 -4.101562 4.59375 -4.125 Z M 4.59375 -4.125 "/></g></g></g><g fill="#ffffff" fill-opacity="1"><g transform="translate(60.147254, 32.549998)"><g><path d="M 6.375 -2.078125 C 6.414062 -1.566406 6.472656 -1.144531 6.546875 -0.8125 C 6.617188 -0.488281 6.738281 -0.21875 6.90625 0 L 5.8125 0 C 5.695312 -0.25 5.609375 -0.519531 5.546875 -0.8125 C 5.492188 -1.101562 5.4375 -1.492188 5.375 -1.984375 C 5.332031 -2.390625 5.222656 -2.71875 5.046875 -2.96875 C 4.867188 -3.226562 4.585938 -3.375 4.203125 -3.40625 C 4.109375 -3.414062 4.007812 -3.421875 3.90625 -3.421875 C 3.8125 -3.421875 3.722656 -3.421875 3.640625 -3.421875 L 2.140625 -3.421875 L 2.140625 0 L 1.15625 0 L 1.15625 -7.9375 L 3.75 -7.9375 C 3.945312 -7.9375 4.125 -7.929688 4.28125 -7.921875 C 4.4375 -7.921875 4.601562 -7.910156 4.78125 -7.890625 C 5.351562 -7.816406 5.828125 -7.609375 6.203125 -7.265625 C 6.578125 -6.929688 6.765625 -6.429688 6.765625 -5.765625 C 6.765625 -5.421875 6.695312 -5.125 6.5625 -4.875 C 6.425781 -4.625 6.25 -4.414062 6.03125 -4.25 C 5.820312 -4.09375 5.59375 -3.976562 5.34375 -3.90625 C 5.664062 -3.757812 5.910156 -3.515625 6.078125 -3.171875 C 6.242188 -2.835938 6.34375 -2.472656 6.375 -2.078125 Z M 2.140625 -4.21875 L 3.65625 -4.21875 C 3.832031 -4.21875 3.976562 -4.21875 4.09375 -4.21875 C 4.207031 -4.226562 4.316406 -4.238281 4.421875 -4.25 C 4.796875 -4.28125 5.101562 -4.414062 5.34375 -4.65625 C 5.582031 -4.894531 5.703125 -5.238281 5.703125 -5.6875 C 5.703125 -6.125 5.597656 -6.453125 5.390625 -6.671875 C 5.191406 -6.890625 4.910156 -7.023438 4.546875 -7.078125 C 4.347656 -7.109375 4.082031 -7.125 3.75 -7.125 L 2.140625 -7.125 Z M 2.140625 -4.21875 "/></g></g></g><g fill="#ffffff" fill-opacity="1"><g transform="translate(67.263361, 32.549998)"><g><path d="M 6.421875 -0.8125 L 6.421875 0 L 1.15625 0 L 1.15625 -7.9375 L 6.3125 -7.9375 L 6.3125 -7.125 L 2.140625 -7.125 L 2.140625 -4.375 L 5.96875 -4.375 L 5.96875 -3.5625 L 2.140625 -3.5625 L 2.140625 -0.8125 Z M 6.421875 -0.8125 "/></g></g></g><g fill="#ffffff" fill-opacity="1"><g transform="translate(74.011587, 32.549998)"><g><path d="M 9.0625 -7.9375 L 9.0625 0 L 8.078125 0 L 8.078125 -4.078125 C 8.078125 -4.578125 8.078125 -5.085938 8.078125 -5.609375 C 8.078125 -6.128906 8.082031 -6.601562 8.09375 -7.03125 C 7.96875 -6.601562 7.816406 -6.125 7.640625 -5.59375 C 7.472656 -5.070312 7.300781 -4.570312 7.125 -4.09375 L 5.734375 0 L 4.484375 0 L 3.0625 -4.109375 C 2.894531 -4.585938 2.726562 -5.082031 2.5625 -5.59375 C 2.394531 -6.113281 2.242188 -6.585938 2.109375 -7.015625 C 2.128906 -6.585938 2.140625 -6.113281 2.140625 -5.59375 C 2.140625 -5.070312 2.140625 -4.566406 2.140625 -4.078125 L 2.140625 0 L 1.15625 0 L 1.15625 -7.9375 L 2.78125 -7.9375 L 5.125 -0.84375 L 7.46875 -7.9375 Z M 9.0625 -7.9375 "/></g></g></g><g fill="#ffffff" fill-opacity="1"><g transform="translate(83.967237, 32.549998)"><g><path d="M 2.140625 0 L 1.15625 0 L 1.15625 -7.9375 L 2.140625 -7.9375 Z M 2.140625 0 "/></g></g></g><g fill="#ffffff" fill-opacity="1"><g transform="translate(87.00221, 32.549998)"><g><path d="M 7.03125 -7.9375 L 7.03125 -2.9375 C 7.03125 -2.8125 7.03125 -2.6875 7.03125 -2.5625 C 7.03125 -2.445312 7.023438 -2.332031 7.015625 -2.21875 C 6.972656 -1.78125 6.84375 -1.378906 6.625 -1.015625 C 6.40625 -0.660156 6.082031 -0.375 5.65625 -0.15625 C 5.238281 0.0507812 4.707031 0.15625 4.0625 0.15625 C 3.414062 0.15625 2.878906 0.0507812 2.453125 -0.15625 C 2.023438 -0.375 1.703125 -0.660156 1.484375 -1.015625 C 1.265625 -1.378906 1.140625 -1.78125 1.109375 -2.21875 C 1.097656 -2.332031 1.085938 -2.445312 1.078125 -2.5625 C 1.078125 -2.6875 1.078125 -2.8125 1.078125 -2.9375 L 1.078125 -7.9375 L 2.0625 -7.9375 L 2.0625 -3.03125 C 2.0625 -2.90625 2.0625 -2.78125 2.0625 -2.65625 C 2.070312 -2.539062 2.082031 -2.429688 2.09375 -2.328125 C 2.132812 -1.828125 2.320312 -1.414062 2.65625 -1.09375 C 2.988281 -0.78125 3.457031 -0.625 4.0625 -0.625 C 4.675781 -0.625 5.144531 -0.78125 5.46875 -1.09375 C 5.789062 -1.414062 5.976562 -1.828125 6.03125 -2.328125 C 6.039062 -2.429688 6.046875 -2.539062 6.046875 -2.65625 C 6.046875 -2.78125 6.046875 -2.90625 6.046875 -3.03125 L 6.046875 -7.9375 Z M 7.03125 -7.9375 "/></g></g></g><g fill="#ffffff" fill-opacity="1"><g transform="translate(94.842568, 32.549998)"><g><path d="M 9.0625 -7.9375 L 9.0625 0 L 8.078125 0 L 8.078125 -4.078125 C 8.078125 -4.578125 8.078125 -5.085938 8.078125 -5.609375 C 8.078125 -6.128906 8.082031 -6.601562 8.09375 -7.03125 C 7.96875 -6.601562 7.816406 -6.125 7.640625 -5.59375 C 7.472656 -5.070312 7.300781 -4.570312 7.125 -4.09375 L 5.734375 0 L 4.484375 0 L 3.0625 -4.109375 C 2.894531 -4.585938 2.726562 -5.082031 2.5625 -5.59375 C 2.394531 -6.113281 2.242188 -6.585938 2.109375 -7.015625 C 2.128906 -6.585938 2.140625 -6.113281 2.140625 -5.59375 C 2.140625 -5.070312 2.140625 -4.566406 2.140625 -4.078125 L 2.140625 0 L 1.15625 0 L 1.15625 -7.9375 L 2.78125 -7.9375 L 5.125 -0.84375 L 7.46875 -7.9375 Z M 9.0625 -7.9375 "/></g></g></g></svg>