<svg xmlns="http://www.w3.org/2000/svg" xmlns:xlink="http://www.w3.org/1999/xlink" width="172" zoomAndPan="magnify" viewBox="0 0 129 44.999999" height="60" preserveAspectRatio="xMidYMid meet" version="1.0"><defs><g/><clipPath id="7508c3f206"><path d="M 23.34375 16.070312 L 41.34375 16.070312 L 41.34375 28.820312 L 23.34375 28.820312 Z M 23.34375 16.070312 " clip-rule="nonzero"/></clipPath></defs><g clip-path="url(#7508c3f206)"><path fill="#fab818" d="M 38.011719 28.144531 L 37.777344 28.925781 L 27.011719 28.925781 L 26.777344 28.140625 Z M 35.546875 23.457031 C 34.546875 23.132812 33.664062 21.855469 32.921875 19.664062 C 32.707031 19.03125 32.539062 18.417969 32.410156 17.902344 C 32.285156 18.445312 32.117188 19.101562 31.902344 19.769531 C 31.171875 22.027344 30.261719 23.273438 29.207031 23.46875 C 27.570312 23.773438 25.75 22.308594 24.710938 21.292969 L 26.582031 27.496094 L 38.207031 27.496094 L 40.058594 21.359375 C 38.996094 22.445312 37.140625 23.976562 35.546875 23.457031 Z M 32.386719 16.070312 C 32.195312 16.070312 32.035156 16.136719 31.902344 16.269531 C 31.769531 16.402344 31.703125 16.5625 31.703125 16.75 C 31.703125 16.941406 31.769531 17.101562 31.902344 17.234375 C 32.035156 17.367188 32.195312 17.433594 32.386719 17.433594 C 32.574219 17.433594 32.734375 17.367188 32.867188 17.234375 C 33 17.101562 33.070312 16.941406 33.070312 16.753906 C 33.066406 16.5625 33 16.402344 32.867188 16.269531 C 32.734375 16.136719 32.574219 16.070312 32.386719 16.070312 Z M 24.03125 19.765625 C 23.839844 19.765625 23.679688 19.832031 23.546875 19.96875 C 23.414062 20.101562 23.347656 20.261719 23.347656 20.449219 C 23.347656 20.636719 23.414062 20.800781 23.546875 20.933594 C 23.679688 21.066406 23.839844 21.132812 24.03125 21.132812 C 24.21875 21.132812 24.378906 21.066406 24.511719 20.933594 C 24.644531 20.800781 24.710938 20.640625 24.710938 20.449219 C 24.710938 20.261719 24.644531 20.101562 24.511719 19.96875 C 24.378906 19.832031 24.21875 19.765625 24.027344 19.765625 Z M 40.519531 19.867188 C 40.332031 19.867188 40.167969 19.933594 40.035156 20.066406 C 39.902344 20.199219 39.835938 20.363281 39.835938 20.550781 C 39.835938 20.738281 39.902344 20.898438 40.035156 21.035156 C 40.167969 21.167969 40.328125 21.234375 40.515625 21.234375 C 40.707031 21.234375 40.867188 21.167969 41 21.035156 C 41.132812 20.902344 41.199219 20.742188 41.199219 20.550781 C 41.199219 20.363281 41.132812 20.203125 41 20.070312 C 40.867188 19.9375 40.707031 19.867188 40.519531 19.867188 Z M 40.519531 19.867188 " fill-opacity="1" fill-rule="nonzero"/></g><g fill="#fab818" fill-opacity="1"><g transform="translate(41.207096, 26.84364)"><g><path d="M 2.8125 -6.296875 C 3.238281 -6.296875 3.597656 -6.210938 3.890625 -6.046875 C 4.179688 -5.890625 4.40625 -5.671875 4.5625 -5.390625 C 4.726562 -5.117188 4.832031 -4.804688 4.875 -4.453125 L 4.046875 -4.453125 C 4.015625 -4.847656 3.882812 -5.148438 3.65625 -5.359375 C 3.4375 -5.578125 3.132812 -5.6875 2.75 -5.6875 C 2.414062 -5.6875 2.132812 -5.609375 1.90625 -5.453125 C 1.6875 -5.296875 1.578125 -5.054688 1.578125 -4.734375 C 1.578125 -4.398438 1.675781 -4.148438 1.875 -3.984375 C 2.082031 -3.816406 2.421875 -3.675781 2.890625 -3.5625 C 3.578125 -3.40625 4.085938 -3.175781 4.421875 -2.875 C 4.765625 -2.582031 4.9375 -2.175781 4.9375 -1.65625 C 4.9375 -1.289062 4.84375 -0.972656 4.65625 -0.703125 C 4.46875 -0.441406 4.210938 -0.238281 3.890625 -0.09375 C 3.578125 0.0507812 3.21875 0.125 2.8125 0.125 C 2.132812 0.125 1.585938 -0.0351562 1.171875 -0.359375 C 0.765625 -0.691406 0.53125 -1.15625 0.46875 -1.75 L 1.28125 -1.75 C 1.375 -1.34375 1.554688 -1.03125 1.828125 -0.8125 C 2.097656 -0.59375 2.429688 -0.484375 2.828125 -0.484375 C 3.179688 -0.484375 3.484375 -0.570312 3.734375 -0.75 C 3.984375 -0.9375 4.109375 -1.191406 4.109375 -1.515625 C 4.109375 -1.890625 3.992188 -2.171875 3.765625 -2.359375 C 3.535156 -2.554688 3.144531 -2.71875 2.59375 -2.84375 C 2.238281 -2.925781 1.921875 -3.035156 1.640625 -3.171875 C 1.359375 -3.316406 1.140625 -3.5 0.984375 -3.71875 C 0.828125 -3.9375 0.75 -4.21875 0.75 -4.5625 C 0.75 -4.914062 0.84375 -5.222656 1.03125 -5.484375 C 1.21875 -5.742188 1.46875 -5.941406 1.78125 -6.078125 C 2.09375 -6.222656 2.4375 -6.296875 2.8125 -6.296875 Z M 2.8125 -6.296875 "/></g></g></g><g fill="#fab818" fill-opacity="1"><g transform="translate(46.440109, 26.84364)"><g><path d="M 1.578125 -4.109375 L 1.578125 -1.390625 C 1.578125 -1.304688 1.578125 -1.238281 1.578125 -1.1875 C 1.578125 -1.144531 1.582031 -1.085938 1.59375 -1.015625 C 1.613281 -0.785156 1.679688 -0.640625 1.796875 -0.578125 C 1.910156 -0.515625 2.113281 -0.5 2.40625 -0.53125 L 2.40625 0.03125 C 2.300781 0.0390625 2.191406 0.0507812 2.078125 0.0625 C 1.972656 0.0703125 1.867188 0.078125 1.765625 0.078125 C 1.472656 0.078125 1.25 0.0078125 1.09375 -0.125 C 0.9375 -0.257812 0.847656 -0.472656 0.828125 -0.765625 C 0.816406 -0.828125 0.8125 -0.90625 0.8125 -1 C 0.8125 -1.101562 0.8125 -1.21875 0.8125 -1.34375 L 0.8125 -4.109375 L 0.171875 -4.109375 L 0.171875 -4.703125 L 0.8125 -4.703125 L 0.8125 -5.796875 L 1.578125 -5.796875 L 1.578125 -4.703125 L 2.46875 -4.703125 L 2.46875 -4.109375 Z M 1.578125 -4.109375 "/></g></g></g><g fill="#fab818" fill-opacity="1"><g transform="translate(49.239995, 26.84364)"><g><path d="M 3.375 0 L 3.296875 -0.671875 L 3.03125 -0.171875 C 2.875 -0.0546875 2.691406 0.0195312 2.484375 0.0625 C 2.285156 0.101562 2.070312 0.125 1.84375 0.125 C 1.5625 0.125 1.304688 0.0703125 1.078125 -0.03125 C 0.847656 -0.132812 0.664062 -0.285156 0.53125 -0.484375 C 0.394531 -0.679688 0.328125 -0.925781 0.328125 -1.21875 C 0.328125 -1.757812 0.535156 -2.164062 0.953125 -2.4375 C 1.378906 -2.707031 2.054688 -2.84375 2.984375 -2.84375 L 3.28125 -2.84375 L 3.28125 -2.96875 C 3.28125 -3.070312 3.28125 -3.171875 3.28125 -3.265625 C 3.28125 -3.367188 3.273438 -3.460938 3.265625 -3.546875 C 3.253906 -3.765625 3.175781 -3.9375 3.03125 -4.0625 C 2.894531 -4.195312 2.664062 -4.265625 2.34375 -4.265625 C 2.03125 -4.265625 1.789062 -4.179688 1.625 -4.015625 C 1.457031 -3.847656 1.359375 -3.597656 1.328125 -3.265625 L 0.53125 -3.265625 C 0.5625 -3.773438 0.738281 -4.164062 1.0625 -4.4375 C 1.394531 -4.71875 1.820312 -4.859375 2.34375 -4.859375 C 2.914062 -4.859375 3.328125 -4.742188 3.578125 -4.515625 C 3.835938 -4.296875 3.988281 -3.992188 4.03125 -3.609375 C 4.039062 -3.515625 4.046875 -3.410156 4.046875 -3.296875 C 4.054688 -3.191406 4.0625 -3.085938 4.0625 -2.984375 L 4.0625 -1.203125 C 4.0625 -1.023438 4.066406 -0.84375 4.078125 -0.65625 C 4.085938 -0.476562 4.109375 -0.257812 4.140625 0 Z M 2.109375 -0.46875 C 2.460938 -0.46875 2.742188 -0.582031 2.953125 -0.8125 C 3.171875 -1.039062 3.28125 -1.367188 3.28125 -1.796875 L 3.28125 -2.28125 C 2.632812 -2.320312 2.117188 -2.265625 1.734375 -2.109375 C 1.347656 -1.960938 1.15625 -1.6875 1.15625 -1.28125 C 1.15625 -1 1.238281 -0.789062 1.40625 -0.65625 C 1.582031 -0.53125 1.816406 -0.46875 2.109375 -0.46875 Z M 2.109375 -0.46875 "/></g></g></g><g fill="#fab818" fill-opacity="1"><g transform="translate(53.989956, 26.84364)"><g><path d="M 2.515625 -4.84375 C 2.648438 -4.84375 2.757812 -4.820312 2.84375 -4.78125 L 2.84375 -4.203125 C 2.445312 -4.234375 2.113281 -4.125 1.84375 -3.875 C 1.570312 -3.632812 1.4375 -3.242188 1.4375 -2.703125 L 1.4375 0 L 0.65625 0 L 0.65625 -4.734375 L 1.4375 -4.734375 L 1.4375 -4 L 1.859375 -4.625 C 2.066406 -4.769531 2.285156 -4.84375 2.515625 -4.84375 Z M 2.515625 -4.84375 "/></g></g></g><g fill="#fab818" fill-opacity="1"><g transform="translate(56.941908, 26.84364)"><g><path d="M 1.578125 -4.109375 L 1.578125 -1.390625 C 1.578125 -1.304688 1.578125 -1.238281 1.578125 -1.1875 C 1.578125 -1.144531 1.582031 -1.085938 1.59375 -1.015625 C 1.613281 -0.785156 1.679688 -0.640625 1.796875 -0.578125 C 1.910156 -0.515625 2.113281 -0.5 2.40625 -0.53125 L 2.40625 0.03125 C 2.300781 0.0390625 2.191406 0.0507812 2.078125 0.0625 C 1.972656 0.0703125 1.867188 0.078125 1.765625 0.078125 C 1.472656 0.078125 1.25 0.0078125 1.09375 -0.125 C 0.9375 -0.257812 0.847656 -0.472656 0.828125 -0.765625 C 0.816406 -0.828125 0.8125 -0.90625 0.8125 -1 C 0.8125 -1.101562 0.8125 -1.21875 0.8125 -1.34375 L 0.8125 -4.109375 L 0.171875 -4.109375 L 0.171875 -4.703125 L 0.8125 -4.703125 L 0.8125 -5.796875 L 1.578125 -5.796875 L 1.578125 -4.703125 L 2.46875 -4.703125 L 2.46875 -4.109375 Z M 1.578125 -4.109375 "/></g></g></g><g fill="#fab818" fill-opacity="1"><g transform="translate(59.741793, 26.84364)"><g/></g></g><g fill="#fab818" fill-opacity="1"><g transform="translate(61.673988, 26.84364)"><g><path d="M 3.375 0 L 3.296875 -0.671875 L 3.03125 -0.171875 C 2.875 -0.0546875 2.691406 0.0195312 2.484375 0.0625 C 2.285156 0.101562 2.070312 0.125 1.84375 0.125 C 1.5625 0.125 1.304688 0.0703125 1.078125 -0.03125 C 0.847656 -0.132812 0.664062 -0.285156 0.53125 -0.484375 C 0.394531 -0.679688 0.328125 -0.925781 0.328125 -1.21875 C 0.328125 -1.757812 0.535156 -2.164062 0.953125 -2.4375 C 1.378906 -2.707031 2.054688 -2.84375 2.984375 -2.84375 L 3.28125 -2.84375 L 3.28125 -2.96875 C 3.28125 -3.070312 3.28125 -3.171875 3.28125 -3.265625 C 3.28125 -3.367188 3.273438 -3.460938 3.265625 -3.546875 C 3.253906 -3.765625 3.175781 -3.9375 3.03125 -4.0625 C 2.894531 -4.195312 2.664062 -4.265625 2.34375 -4.265625 C 2.03125 -4.265625 1.789062 -4.179688 1.625 -4.015625 C 1.457031 -3.847656 1.359375 -3.597656 1.328125 -3.265625 L 0.53125 -3.265625 C 0.5625 -3.773438 0.738281 -4.164062 1.0625 -4.4375 C 1.394531 -4.71875 1.820312 -4.859375 2.34375 -4.859375 C 2.914062 -4.859375 3.328125 -4.742188 3.578125 -4.515625 C 3.835938 -4.296875 3.988281 -3.992188 4.03125 -3.609375 C 4.039062 -3.515625 4.046875 -3.410156 4.046875 -3.296875 C 4.054688 -3.191406 4.0625 -3.085938 4.0625 -2.984375 L 4.0625 -1.203125 C 4.0625 -1.023438 4.066406 -0.84375 4.078125 -0.65625 C 4.085938 -0.476562 4.109375 -0.257812 4.140625 0 Z M 2.109375 -0.46875 C 2.460938 -0.46875 2.742188 -0.582031 2.953125 -0.8125 C 3.171875 -1.039062 3.28125 -1.367188 3.28125 -1.796875 L 3.28125 -2.28125 C 2.632812 -2.320312 2.117188 -2.265625 1.734375 -2.109375 C 1.347656 -1.960938 1.15625 -1.6875 1.15625 -1.28125 C 1.15625 -1 1.238281 -0.789062 1.40625 -0.65625 C 1.582031 -0.53125 1.816406 -0.46875 2.109375 -0.46875 Z M 2.109375 -0.46875 "/></g></g></g><g fill="#fab818" fill-opacity="1"><g transform="translate(66.423949, 26.84364)"><g/></g></g><g fill="#fab818" fill-opacity="1"><g transform="translate(68.356144, 26.84364)"><g><path d="M 1.65625 -5.546875 L 1.65625 -3.390625 L 4.546875 -3.390625 L 4.546875 -2.765625 L 1.65625 -2.765625 L 1.65625 0 L 0.890625 0 L 0.890625 -6.171875 L 4.90625 -6.171875 L 4.90625 -5.546875 Z M 1.65625 -5.546875 "/></g></g></g><g fill="#fab818" fill-opacity="1"><g transform="translate(73.42814, 26.84364)"><g><path d="M 2.515625 -4.84375 C 2.648438 -4.84375 2.757812 -4.820312 2.84375 -4.78125 L 2.84375 -4.203125 C 2.445312 -4.234375 2.113281 -4.125 1.84375 -3.875 C 1.570312 -3.632812 1.4375 -3.242188 1.4375 -2.703125 L 1.4375 0 L 0.65625 0 L 0.65625 -4.734375 L 1.4375 -4.734375 L 1.4375 -4 L 1.859375 -4.625 C 2.066406 -4.769531 2.285156 -4.84375 2.515625 -4.84375 Z M 2.515625 -4.84375 "/></g></g></g><g fill="#fab818" fill-opacity="1"><g transform="translate(76.380091, 26.84364)"><g><path d="M 4.546875 -2.5 C 4.546875 -2.46875 4.546875 -2.421875 4.546875 -2.359375 C 4.546875 -2.296875 4.539062 -2.222656 4.53125 -2.140625 L 1.09375 -2.140625 C 1.125 -1.722656 1.203125 -1.390625 1.328125 -1.140625 C 1.453125 -0.898438 1.613281 -0.726562 1.8125 -0.625 C 2.007812 -0.519531 2.222656 -0.46875 2.453125 -0.46875 C 2.765625 -0.46875 3.035156 -0.554688 3.265625 -0.734375 C 3.492188 -0.921875 3.632812 -1.1875 3.6875 -1.53125 L 4.484375 -1.53125 C 4.421875 -1.144531 4.285156 -0.828125 4.078125 -0.578125 C 3.878906 -0.335938 3.632812 -0.160156 3.34375 -0.046875 C 3.050781 0.0664062 2.742188 0.125 2.421875 0.125 C 2.015625 0.125 1.644531 0.0351562 1.3125 -0.140625 C 0.988281 -0.328125 0.734375 -0.601562 0.546875 -0.96875 C 0.359375 -1.332031 0.265625 -1.789062 0.265625 -2.34375 C 0.265625 -2.863281 0.363281 -3.3125 0.5625 -3.6875 C 0.757812 -4.0625 1.023438 -4.347656 1.359375 -4.546875 C 1.703125 -4.753906 2.085938 -4.859375 2.515625 -4.859375 C 2.953125 -4.859375 3.320312 -4.757812 3.625 -4.5625 C 3.925781 -4.363281 4.15625 -4.085938 4.3125 -3.734375 C 4.46875 -3.378906 4.546875 -2.96875 4.546875 -2.5 Z M 2.5 -4.265625 C 2.125 -4.265625 1.8125 -4.132812 1.5625 -3.875 C 1.3125 -3.613281 1.160156 -3.226562 1.109375 -2.71875 L 3.765625 -2.71875 C 3.734375 -3.21875 3.609375 -3.597656 3.390625 -3.859375 C 3.179688 -4.128906 2.882812 -4.265625 2.5 -4.265625 Z M 2.5 -4.265625 "/></g></g></g><g fill="#fab818" fill-opacity="1"><g transform="translate(81.29107, 26.84364)"><g><path d="M 4.546875 -2.5 C 4.546875 -2.46875 4.546875 -2.421875 4.546875 -2.359375 C 4.546875 -2.296875 4.539062 -2.222656 4.53125 -2.140625 L 1.09375 -2.140625 C 1.125 -1.722656 1.203125 -1.390625 1.328125 -1.140625 C 1.453125 -0.898438 1.613281 -0.726562 1.8125 -0.625 C 2.007812 -0.519531 2.222656 -0.46875 2.453125 -0.46875 C 2.765625 -0.46875 3.035156 -0.554688 3.265625 -0.734375 C 3.492188 -0.921875 3.632812 -1.1875 3.6875 -1.53125 L 4.484375 -1.53125 C 4.421875 -1.144531 4.285156 -0.828125 4.078125 -0.578125 C 3.878906 -0.335938 3.632812 -0.160156 3.34375 -0.046875 C 3.050781 0.0664062 2.742188 0.125 2.421875 0.125 C 2.015625 0.125 1.644531 0.0351562 1.3125 -0.140625 C 0.988281 -0.328125 0.734375 -0.601562 0.546875 -0.96875 C 0.359375 -1.332031 0.265625 -1.789062 0.265625 -2.34375 C 0.265625 -2.863281 0.363281 -3.3125 0.5625 -3.6875 C 0.757812 -4.0625 1.023438 -4.347656 1.359375 -4.546875 C 1.703125 -4.753906 2.085938 -4.859375 2.515625 -4.859375 C 2.953125 -4.859375 3.320312 -4.757812 3.625 -4.5625 C 3.925781 -4.363281 4.15625 -4.085938 4.3125 -3.734375 C 4.46875 -3.378906 4.546875 -2.96875 4.546875 -2.5 Z M 2.5 -4.265625 C 2.125 -4.265625 1.8125 -4.132812 1.5625 -3.875 C 1.3125 -3.613281 1.160156 -3.226562 1.109375 -2.71875 L 3.765625 -2.71875 C 3.734375 -3.21875 3.609375 -3.597656 3.390625 -3.859375 C 3.179688 -4.128906 2.882812 -4.265625 2.5 -4.265625 Z M 2.5 -4.265625 "/></g></g></g><g fill="#fab818" fill-opacity="1"><g transform="translate(86.202048, 26.84364)"><g/></g></g><g fill="#fab818" fill-opacity="1"><g transform="translate(88.134243, 26.84364)"><g><path d="M 5.46875 -5.546875 L 3.265625 -5.546875 L 3.265625 0 L 2.5 0 L 2.5 -5.546875 L 0.296875 -5.546875 L 0.296875 -6.171875 L 5.46875 -6.171875 Z M 5.46875 -5.546875 "/></g></g></g><g fill="#fab818" fill-opacity="1"><g transform="translate(93.608781, 26.84364)"><g><path d="M 2.515625 -4.84375 C 2.648438 -4.84375 2.757812 -4.820312 2.84375 -4.78125 L 2.84375 -4.203125 C 2.445312 -4.234375 2.113281 -4.125 1.84375 -3.875 C 1.570312 -3.632812 1.4375 -3.242188 1.4375 -2.703125 L 1.4375 0 L 0.65625 0 L 0.65625 -4.734375 L 1.4375 -4.734375 L 1.4375 -4 L 1.859375 -4.625 C 2.066406 -4.769531 2.285156 -4.84375 2.515625 -4.84375 Z M 2.515625 -4.84375 "/></g></g></g><g fill="#fab818" fill-opacity="1"><g transform="translate(96.560733, 26.84364)"><g><path d="M 1.046875 -6.296875 C 1.179688 -6.296875 1.296875 -6.242188 1.390625 -6.140625 C 1.484375 -6.046875 1.53125 -5.929688 1.53125 -5.796875 C 1.53125 -5.660156 1.484375 -5.546875 1.390625 -5.453125 C 1.296875 -5.359375 1.179688 -5.3125 1.046875 -5.3125 C 0.910156 -5.3125 0.789062 -5.359375 0.6875 -5.453125 C 0.59375 -5.546875 0.546875 -5.660156 0.546875 -5.796875 C 0.546875 -5.929688 0.59375 -6.046875 0.6875 -6.140625 C 0.789062 -6.242188 0.910156 -6.296875 1.046875 -6.296875 Z M 1.4375 0 L 0.65625 0 L 0.65625 -4.734375 L 1.4375 -4.734375 Z M 1.4375 0 "/></g></g></g><g fill="#fab818" fill-opacity="1"><g transform="translate(98.689717, 26.84364)"><g><path d="M 3.375 0 L 3.296875 -0.671875 L 3.03125 -0.171875 C 2.875 -0.0546875 2.691406 0.0195312 2.484375 0.0625 C 2.285156 0.101562 2.070312 0.125 1.84375 0.125 C 1.5625 0.125 1.304688 0.0703125 1.078125 -0.03125 C 0.847656 -0.132812 0.664062 -0.285156 0.53125 -0.484375 C 0.394531 -0.679688 0.328125 -0.925781 0.328125 -1.21875 C 0.328125 -1.757812 0.535156 -2.164062 0.953125 -2.4375 C 1.378906 -2.707031 2.054688 -2.84375 2.984375 -2.84375 L 3.28125 -2.84375 L 3.28125 -2.96875 C 3.28125 -3.070312 3.28125 -3.171875 3.28125 -3.265625 C 3.28125 -3.367188 3.273438 -3.460938 3.265625 -3.546875 C 3.253906 -3.765625 3.175781 -3.9375 3.03125 -4.0625 C 2.894531 -4.195312 2.664062 -4.265625 2.34375 -4.265625 C 2.03125 -4.265625 1.789062 -4.179688 1.625 -4.015625 C 1.457031 -3.847656 1.359375 -3.597656 1.328125 -3.265625 L 0.53125 -3.265625 C 0.5625 -3.773438 0.738281 -4.164062 1.0625 -4.4375 C 1.394531 -4.71875 1.820312 -4.859375 2.34375 -4.859375 C 2.914062 -4.859375 3.328125 -4.742188 3.578125 -4.515625 C 3.835938 -4.296875 3.988281 -3.992188 4.03125 -3.609375 C 4.039062 -3.515625 4.046875 -3.410156 4.046875 -3.296875 C 4.054688 -3.191406 4.0625 -3.085938 4.0625 -2.984375 L 4.0625 -1.203125 C 4.0625 -1.023438 4.066406 -0.84375 4.078125 -0.65625 C 4.085938 -0.476562 4.109375 -0.257812 4.140625 0 Z M 2.109375 -0.46875 C 2.460938 -0.46875 2.742188 -0.582031 2.953125 -0.8125 C 3.171875 -1.039062 3.28125 -1.367188 3.28125 -1.796875 L 3.28125 -2.28125 C 2.632812 -2.320312 2.117188 -2.265625 1.734375 -2.109375 C 1.347656 -1.960938 1.15625 -1.6875 1.15625 -1.28125 C 1.15625 -1 1.238281 -0.789062 1.40625 -0.65625 C 1.582031 -0.53125 1.816406 -0.46875 2.109375 -0.46875 Z M 2.109375 -0.46875 "/></g></g></g><g fill="#fab818" fill-opacity="1"><g transform="translate(103.439679, 26.84364)"><g><path d="M 1.390625 -6.5625 L 1.390625 -1.359375 C 1.390625 -1.285156 1.390625 -1.210938 1.390625 -1.140625 C 1.390625 -1.066406 1.394531 -0.988281 1.40625 -0.90625 C 1.414062 -0.757812 1.460938 -0.65625 1.546875 -0.59375 C 1.628906 -0.539062 1.773438 -0.523438 1.984375 -0.546875 L 1.984375 0 C 1.898438 0.0078125 1.8125 0.015625 1.71875 0.015625 C 1.625 0.0234375 1.53125 0.03125 1.4375 0.03125 C 1.21875 0.03125 1.03125 -0.015625 0.875 -0.109375 C 0.726562 -0.210938 0.648438 -0.410156 0.640625 -0.703125 C 0.628906 -0.785156 0.625 -0.878906 0.625 -0.984375 C 0.625 -1.085938 0.625 -1.203125 0.625 -1.328125 L 0.625 -6.5625 Z M 1.390625 -6.5625 "/></g></g></g></svg>