<svg xmlns="http://www.w3.org/2000/svg" xmlns:xlink="http://www.w3.org/1999/xlink" width="500" zoomAndPan="magnify" viewBox="0 0 375 374.999991" height="500" preserveAspectRatio="xMidYMid meet" version="1.0"><path fill="#ffffff" d="M 241.03125 274.21875 L 332.878906 366.035156 C 341.972656 375.125 356.742188 375.121094 365.835938 366.027344 C 374.925781 356.933594 374.925781 342.164062 365.832031 333.070312 L 274.042969 241.316406 C 292.507812 216.203125 303.421875 185.1875 303.421875 151.640625 C 303.421875 67.949219 235.476562 0 151.78125 0 C 68.085938 0 0.140625 67.949219 0.140625 151.640625 C 0.140625 235.335938 68.085938 303.28125 151.78125 303.28125 C 185.132812 303.28125 215.984375 292.496094 241.03125 274.21875 Z M 151.78125 46.609375 C 209.75 46.609375 256.816406 93.671875 256.816406 151.640625 C 256.816406 209.609375 209.75 256.679688 151.78125 256.679688 C 93.8125 256.679688 46.746094 209.609375 46.746094 151.640625 C 46.746094 93.671875 93.8125 46.609375 151.78125 46.609375 Z M 151.78125 46.609375 " fill-opacity="1" fill-rule="evenodd"/></svg>