<svg xmlns="http://www.w3.org/2000/svg" xmlns:xlink="http://www.w3.org/1999/xlink" width="500" zoomAndPan="magnify" viewBox="0 0 375 374.999991" height="500" preserveAspectRatio="xMidYMid meet" version="1.0"><defs><clipPath id="e5e01b0288"><path d="M 52.054688 0 L 325 0 L 325 370 L 52.054688 370 Z M 52.054688 0 " clip-rule="nonzero"/></clipPath></defs><g clip-path="url(#e5e01b0288)"><path fill="#ffffff" d="M 324.9375 19.445312 L 324.9375 350.0625 C 324.925781 350.976562 324.847656 351.886719 324.707031 352.789062 C 324.566406 353.695312 324.363281 354.582031 324.097656 355.457031 C 323.832031 356.332031 323.507812 357.183594 323.125 358.015625 C 322.738281 358.84375 322.300781 359.640625 321.804688 360.410156 C 321.308594 361.179688 320.761719 361.90625 320.164062 362.597656 C 319.5625 363.289062 318.921875 363.9375 318.230469 364.539062 C 317.542969 365.136719 316.816406 365.6875 316.050781 366.1875 C 315.285156 366.6875 314.488281 367.132812 313.660156 367.519531 C 312.832031 367.90625 311.980469 368.234375 311.105469 368.503906 C 310.234375 368.773438 309.34375 368.980469 308.441406 369.125 C 307.539062 369.265625 306.632812 369.347656 305.71875 369.367188 C 304.804688 369.382812 303.894531 369.335938 302.984375 369.226562 C 302.078125 369.117188 301.183594 368.941406 300.300781 368.707031 C 299.414062 368.472656 298.554688 368.175781 297.710938 367.820312 C 296.871094 367.460938 296.058594 367.050781 295.273438 366.578125 C 294.488281 366.109375 293.742188 365.585938 293.03125 365.011719 L 188.800781 278.140625 L 84.570312 365.011719 C 83.859375 365.585938 83.113281 366.109375 82.328125 366.578125 C 81.542969 367.050781 80.730469 367.464844 79.890625 367.820312 C 79.046875 368.175781 78.183594 368.472656 77.300781 368.707031 C 76.417969 368.945312 75.523438 369.117188 74.613281 369.226562 C 73.707031 369.339844 72.796875 369.382812 71.882812 369.367188 C 70.96875 369.351562 70.058594 369.269531 69.15625 369.125 C 68.253906 368.980469 67.367188 368.773438 66.492188 368.503906 C 65.617188 368.238281 64.765625 367.910156 63.941406 367.519531 C 63.113281 367.132812 62.316406 366.691406 61.550781 366.191406 C 60.785156 365.691406 60.054688 365.140625 59.367188 364.539062 C 58.679688 363.9375 58.035156 363.292969 57.4375 362.601562 C 56.839844 361.910156 56.292969 361.179688 55.796875 360.410156 C 55.300781 359.644531 54.859375 358.84375 54.476562 358.015625 C 54.089844 357.1875 53.765625 356.332031 53.5 355.457031 C 53.234375 354.582031 53.035156 353.695312 52.894531 352.789062 C 52.753906 351.886719 52.675781 350.980469 52.664062 350.0625 L 52.664062 19.445312 C 52.664062 18.808594 52.691406 18.171875 52.753906 17.539062 C 52.816406 16.902344 52.910156 16.273438 53.035156 15.648438 C 53.160156 15.023438 53.3125 14.40625 53.496094 13.796875 C 53.683594 13.1875 53.894531 12.589844 54.140625 12 C 54.382812 11.410156 54.65625 10.835938 54.957031 10.273438 C 55.257812 9.710938 55.582031 9.167969 55.9375 8.636719 C 56.289062 8.109375 56.667969 7.597656 57.074219 7.105469 C 57.476562 6.613281 57.90625 6.140625 58.355469 5.691406 C 58.804688 5.238281 59.277344 4.8125 59.769531 4.40625 C 60.261719 4.003906 60.773438 3.625 61.304688 3.269531 C 61.832031 2.917969 62.378906 2.589844 62.941406 2.289062 C 63.503906 1.988281 64.078125 1.71875 64.667969 1.472656 C 65.253906 1.230469 65.855469 1.015625 66.464844 0.832031 C 67.074219 0.648438 67.691406 0.492188 68.316406 0.367188 C 68.941406 0.246094 69.570312 0.152344 70.203125 0.0898438 C 70.839844 0.0273438 71.472656 -0.00390625 72.109375 -0.00390625 L 305.488281 -0.00390625 C 306.125 -0.00390625 306.761719 0.0273438 307.394531 0.0898438 C 308.03125 0.152344 308.660156 0.246094 309.285156 0.367188 C 309.910156 0.492188 310.527344 0.648438 311.136719 0.832031 C 311.746094 1.015625 312.34375 1.230469 312.933594 1.472656 C 313.523438 1.71875 314.097656 1.988281 314.660156 2.289062 C 315.222656 2.589844 315.765625 2.917969 316.296875 3.269531 C 316.828125 3.625 317.335938 4.003906 317.832031 4.40625 C 318.324219 4.8125 318.792969 5.238281 319.246094 5.6875 C 319.695312 6.140625 320.121094 6.613281 320.527344 7.105469 C 320.929688 7.597656 321.308594 8.109375 321.664062 8.636719 C 322.015625 9.167969 322.34375 9.710938 322.644531 10.273438 C 322.945312 10.835938 323.214844 11.410156 323.460938 12 C 323.703125 12.589844 323.917969 13.1875 324.101562 13.796875 C 324.289062 14.40625 324.441406 15.023438 324.566406 15.648438 C 324.691406 16.273438 324.78125 16.902344 324.84375 17.539062 C 324.90625 18.171875 324.9375 18.808594 324.9375 19.445312 Z M 324.9375 19.445312 " fill-opacity="1" fill-rule="nonzero"/></g></svg>