<svg xmlns="http://www.w3.org/2000/svg" xmlns:xlink="http://www.w3.org/1999/xlink" width="500" zoomAndPan="magnify" viewBox="0 0 375 374.999991" height="500" preserveAspectRatio="xMidYMid meet" version="1.0"><defs><clipPath id="ea28b178b6"><path d="M 20.859375 194 L 353.859375 194 L 353.859375 375 L 20.859375 375 Z M 20.859375 194 " clip-rule="nonzero"/></clipPath></defs><path fill="#ffffff" d="M 270.820312 83.347656 C 270.820312 84.714844 270.785156 86.074219 270.71875 87.4375 C 270.652344 88.800781 270.550781 90.160156 270.417969 91.515625 C 270.285156 92.875 270.117188 94.226562 269.917969 95.574219 C 269.71875 96.925781 269.484375 98.265625 269.21875 99.605469 C 268.953125 100.941406 268.65625 102.273438 268.324219 103.59375 C 267.992188 104.917969 267.628906 106.230469 267.234375 107.535156 C 266.835938 108.839844 266.410156 110.136719 265.949219 111.417969 C 265.492188 112.703125 265 113.976562 264.476562 115.234375 C 263.957031 116.496094 263.402344 117.742188 262.820312 118.972656 C 262.238281 120.207031 261.625 121.425781 260.980469 122.625 C 260.339844 123.828125 259.667969 125.015625 258.964844 126.183594 C 258.265625 127.355469 257.535156 128.507812 256.777344 129.640625 C 256.019531 130.773438 255.234375 131.886719 254.421875 132.984375 C 253.609375 134.078125 252.773438 135.152344 251.90625 136.207031 C 251.042969 137.261719 250.152344 138.292969 249.234375 139.304688 C 248.320312 140.316406 247.378906 141.300781 246.417969 142.265625 C 245.453125 143.230469 244.464844 144.171875 243.453125 145.085938 C 242.445312 146 241.410156 146.890625 240.359375 147.757812 C 239.304688 148.621094 238.230469 149.460938 237.132812 150.273438 C 236.039062 151.085938 234.925781 151.871094 233.789062 152.628906 C 232.65625 153.386719 231.503906 154.113281 230.335938 154.816406 C 229.164062 155.515625 227.980469 156.1875 226.777344 156.832031 C 225.574219 157.472656 224.355469 158.085938 223.125 158.671875 C 221.890625 159.253906 220.644531 159.804688 219.386719 160.328125 C 218.125 160.847656 216.855469 161.339844 215.570312 161.800781 C 214.285156 162.257812 212.992188 162.6875 211.6875 163.082031 C 210.382812 163.476562 209.066406 163.839844 207.746094 164.171875 C 206.421875 164.503906 205.09375 164.804688 203.753906 165.070312 C 202.417969 165.335938 201.074219 165.566406 199.726562 165.769531 C 198.375 165.96875 197.023438 166.136719 195.667969 166.269531 C 194.308594 166.402344 192.949219 166.503906 191.589844 166.570312 C 190.226562 166.636719 188.863281 166.667969 187.5 166.667969 C 186.136719 166.667969 184.773438 166.636719 183.410156 166.570312 C 182.050781 166.503906 180.691406 166.402344 179.332031 166.269531 C 177.976562 166.136719 176.625 165.96875 175.273438 165.769531 C 173.925781 165.566406 172.582031 165.335938 171.246094 165.070312 C 169.90625 164.804688 168.578125 164.503906 167.253906 164.171875 C 165.933594 163.839844 164.617188 163.476562 163.3125 163.082031 C 162.007812 162.6875 160.714844 162.257812 159.429688 161.800781 C 158.144531 161.339844 156.875 160.847656 155.613281 160.328125 C 154.355469 159.804688 153.109375 159.253906 151.875 158.671875 C 150.644531 158.085938 149.425781 157.472656 148.222656 156.832031 C 147.019531 156.1875 145.835938 155.515625 144.664062 154.816406 C 143.496094 154.113281 142.34375 153.386719 141.210938 152.628906 C 140.074219 151.871094 138.960938 151.085938 137.867188 150.273438 C 136.769531 149.460938 135.695312 148.621094 134.640625 147.757812 C 133.589844 146.890625 132.554688 146 131.546875 145.085938 C 130.535156 144.171875 129.546875 143.230469 128.582031 142.265625 C 127.621094 141.300781 126.679688 140.316406 125.765625 139.304688 C 124.847656 138.292969 123.957031 137.261719 123.09375 136.207031 C 122.226562 135.152344 121.390625 134.078125 120.578125 132.984375 C 119.765625 131.886719 118.980469 130.773438 118.222656 129.640625 C 117.464844 128.507812 116.734375 127.355469 116.035156 126.183594 C 115.332031 125.015625 114.660156 123.828125 114.019531 122.625 C 113.375 121.425781 112.761719 120.207031 112.179688 118.972656 C 111.597656 117.742188 111.042969 116.496094 110.523438 115.234375 C 110 113.976562 109.507812 112.703125 109.050781 111.417969 C 108.589844 110.136719 108.164062 108.839844 107.765625 107.535156 C 107.371094 106.230469 107.007812 104.917969 106.675781 103.59375 C 106.34375 102.273438 106.046875 100.941406 105.78125 99.605469 C 105.515625 98.265625 105.28125 96.925781 105.082031 95.574219 C 104.882812 94.226562 104.714844 92.875 104.582031 91.515625 C 104.445312 90.160156 104.347656 88.800781 104.28125 87.4375 C 104.214844 86.074219 104.179688 84.714844 104.179688 83.347656 C 104.179688 81.984375 104.214844 80.625 104.28125 79.261719 C 104.347656 77.898438 104.445312 76.539062 104.582031 75.183594 C 104.714844 73.824219 104.882812 72.472656 105.082031 71.125 C 105.28125 69.773438 105.515625 68.433594 105.78125 67.09375 C 106.046875 65.757812 106.34375 64.425781 106.675781 63.105469 C 107.007812 61.78125 107.371094 60.46875 107.765625 59.164062 C 108.164062 57.859375 108.589844 56.5625 109.050781 55.28125 C 109.507812 53.996094 110 52.722656 110.523438 51.464844 C 111.042969 50.203125 111.597656 48.957031 112.179688 47.726562 C 112.761719 46.492188 113.375 45.273438 114.019531 44.074219 C 114.660156 42.871094 115.332031 41.683594 116.035156 40.515625 C 116.734375 39.34375 117.464844 38.191406 118.222656 37.058594 C 118.980469 35.925781 119.765625 34.8125 120.578125 33.714844 C 121.390625 32.621094 122.226562 31.546875 123.09375 30.492188 C 123.957031 29.4375 124.847656 28.40625 125.765625 27.394531 C 126.679688 26.382812 127.621094 25.398438 128.582031 24.433594 C 129.546875 23.46875 130.535156 22.527344 131.546875 21.613281 C 132.554688 20.699219 133.589844 19.808594 134.640625 18.941406 C 135.695312 18.078125 136.769531 17.238281 137.867188 16.425781 C 138.960938 15.613281 140.074219 14.828125 141.210938 14.070312 C 142.34375 13.3125 143.496094 12.585938 144.664062 11.882812 C 145.835938 11.183594 147.019531 10.511719 148.222656 9.867188 C 149.425781 9.226562 150.644531 8.613281 151.875 8.027344 C 153.109375 7.445312 154.355469 6.894531 155.613281 6.371094 C 156.875 5.851562 158.144531 5.359375 159.429688 4.898438 C 160.714844 4.441406 162.007812 4.011719 163.3125 3.617188 C 164.617188 3.222656 165.933594 2.859375 167.253906 2.527344 C 168.578125 2.195312 169.90625 1.894531 171.246094 1.628906 C 172.582031 1.363281 173.925781 1.132812 175.273438 0.929688 C 176.625 0.730469 177.976562 0.5625 179.332031 0.429688 C 180.691406 0.296875 182.050781 0.195312 183.410156 0.128906 C 184.773438 0.0625 186.136719 0.0273438 187.5 0.0273438 C 188.863281 0.0273438 190.226562 0.0625 191.589844 0.128906 C 192.949219 0.195312 194.308594 0.296875 195.667969 0.429688 C 197.023438 0.5625 198.375 0.730469 199.726562 0.929688 C 201.074219 1.132812 202.417969 1.363281 203.753906 1.628906 C 205.09375 1.894531 206.421875 2.195312 207.746094 2.527344 C 209.066406 2.859375 210.382812 3.222656 211.6875 3.617188 C 212.992188 4.011719 214.285156 4.441406 215.570312 4.898438 C 216.855469 5.359375 218.125 5.851562 219.386719 6.371094 C 220.644531 6.894531 221.890625 7.445312 223.125 8.027344 C 224.355469 8.613281 225.574219 9.226562 226.777344 9.867188 C 227.980469 10.511719 229.164062 11.183594 230.335938 11.882812 C 231.503906 12.585938 232.65625 13.3125 233.789062 14.070312 C 234.925781 14.828125 236.039062 15.613281 237.132812 16.425781 C 238.230469 17.238281 239.304688 18.078125 240.359375 18.941406 C 241.410156 19.808594 242.445312 20.699219 243.453125 21.613281 C 244.464844 22.527344 245.453125 23.46875 246.417969 24.433594 C 247.378906 25.398438 248.320312 26.382812 249.234375 27.394531 C 250.152344 28.40625 251.042969 29.4375 251.90625 30.492188 C 252.773438 31.546875 253.609375 32.621094 254.421875 33.714844 C 255.234375 34.8125 256.019531 35.925781 256.777344 37.058594 C 257.535156 38.191406 258.265625 39.34375 258.964844 40.515625 C 259.667969 41.683594 260.339844 42.871094 260.980469 44.074219 C 261.625 45.273438 262.238281 46.492188 262.820312 47.726562 C 263.402344 48.957031 263.957031 50.203125 264.476562 51.464844 C 265 52.722656 265.492188 53.996094 265.949219 55.28125 C 266.410156 56.5625 266.835938 57.859375 267.234375 59.164062 C 267.628906 60.46875 267.992188 61.78125 268.324219 63.105469 C 268.65625 64.425781 268.953125 65.757812 269.21875 67.09375 C 269.484375 68.433594 269.71875 69.773438 269.917969 71.125 C 270.117188 72.472656 270.285156 73.824219 270.417969 75.183594 C 270.550781 76.539062 270.652344 77.898438 270.71875 79.261719 C 270.785156 80.625 270.820312 81.984375 270.820312 83.347656 Z M 270.820312 83.347656 " fill-opacity="1" fill-rule="nonzero"/><g clip-path="url(#ea28b178b6)"><path fill="#ffffff" d="M 159.726562 194.441406 L 215.273438 194.441406 C 217.546875 194.445312 219.816406 194.5 222.085938 194.609375 C 224.355469 194.722656 226.625 194.890625 228.886719 195.113281 C 231.148438 195.335938 233.402344 195.613281 235.648438 195.945312 C 237.898438 196.28125 240.136719 196.667969 242.363281 197.113281 C 244.59375 197.554688 246.8125 198.054688 249.015625 198.605469 C 251.21875 199.15625 253.410156 199.761719 255.585938 200.421875 C 257.757812 201.082031 259.917969 201.796875 262.054688 202.5625 C 264.195312 203.328125 266.316406 204.144531 268.414062 205.015625 C 270.515625 205.882812 272.59375 206.804688 274.648438 207.777344 C 276.703125 208.746094 278.730469 209.769531 280.734375 210.839844 C 282.738281 211.910156 284.714844 213.03125 286.664062 214.199219 C 288.613281 215.367188 290.535156 216.585938 292.425781 217.847656 C 294.3125 219.109375 296.171875 220.417969 297.996094 221.769531 C 299.820312 223.125 301.613281 224.523438 303.371094 225.964844 C 305.125 227.40625 306.847656 228.890625 308.53125 230.417969 C 310.214844 231.941406 311.859375 233.507812 313.46875 235.117188 C 315.074219 236.722656 316.640625 238.367188 318.167969 240.054688 C 319.695312 241.738281 321.175781 243.457031 322.621094 245.214844 C 324.0625 246.972656 325.457031 248.761719 326.8125 250.585938 C 328.167969 252.414062 329.476562 254.269531 330.738281 256.160156 C 332 258.050781 333.214844 259.96875 334.382812 261.917969 C 335.550781 263.867188 336.671875 265.84375 337.742188 267.847656 C 338.816406 269.851562 339.835938 271.882812 340.808594 273.9375 C 341.78125 275.992188 342.699219 278.070312 343.570312 280.167969 C 344.441406 282.269531 345.257812 284.386719 346.023438 286.527344 C 346.789062 288.667969 347.5 290.824219 348.160156 293 C 348.820312 295.175781 349.425781 297.363281 349.980469 299.570312 C 350.53125 301.773438 351.027344 303.988281 351.472656 306.21875 C 351.914062 308.449219 352.304688 310.6875 352.636719 312.933594 C 352.972656 315.183594 353.25 317.4375 353.472656 319.699219 C 353.695312 321.960938 353.863281 324.226562 353.972656 326.496094 C 354.085938 328.765625 354.140625 331.039062 354.140625 333.308594 L 354.140625 374.96875 L 20.859375 374.96875 L 20.859375 333.308594 C 20.859375 331.039062 20.914062 328.765625 21.027344 326.496094 C 21.136719 324.226562 21.304688 321.960938 21.527344 319.699219 C 21.75 317.4375 22.027344 315.183594 22.363281 312.933594 C 22.695312 310.6875 23.085938 308.449219 23.527344 306.21875 C 23.972656 303.988281 24.46875 301.773438 25.019531 299.570312 C 25.574219 297.363281 26.179688 295.175781 26.839844 293 C 27.5 290.824219 28.210938 288.667969 28.976562 286.527344 C 29.742188 284.386719 30.558594 282.269531 31.429688 280.167969 C 32.300781 278.070312 33.21875 275.992188 34.191406 273.9375 C 35.164062 271.882812 36.183594 269.851562 37.257812 267.847656 C 38.328125 265.84375 39.449219 263.867188 40.617188 261.917969 C 41.785156 259.96875 43 258.050781 44.261719 256.160156 C 45.523438 254.269531 46.832031 252.414062 48.1875 250.585938 C 49.542969 248.761719 50.9375 246.972656 52.378906 245.214844 C 53.824219 243.457031 55.304688 241.738281 56.832031 240.054688 C 58.359375 238.367188 59.925781 236.722656 61.53125 235.117188 C 63.140625 233.507812 64.785156 231.941406 66.46875 230.417969 C 68.152344 228.890625 69.875 227.40625 71.628906 225.964844 C 73.386719 224.523438 75.179688 223.125 77.003906 221.769531 C 78.828125 220.417969 80.6875 219.109375 82.574219 217.847656 C 84.464844 216.585938 86.386719 215.367188 88.335938 214.199219 C 90.285156 213.03125 92.261719 211.910156 94.265625 210.839844 C 96.269531 209.769531 98.296875 208.746094 100.351562 207.777344 C 102.40625 206.804688 104.484375 205.882812 106.585938 205.015625 C 108.683594 204.144531 110.804688 203.328125 112.945312 202.5625 C 115.082031 201.796875 117.242188 201.082031 119.414062 200.421875 C 121.589844 199.761719 123.78125 199.15625 125.984375 198.605469 C 128.1875 198.054688 130.40625 197.554688 132.636719 197.113281 C 134.863281 196.667969 137.101562 196.28125 139.351562 195.945312 C 141.597656 195.613281 143.851562 195.335938 146.113281 195.113281 C 148.375 194.890625 150.644531 194.722656 152.914062 194.609375 C 155.183594 194.5 157.453125 194.445312 159.726562 194.441406 Z M 159.726562 194.441406 " fill-opacity="1" fill-rule="nonzero"/></g></svg>